{"glyphs":{"0":{"ha":946,"x_min":0,"x_max":0,"o":"m 474 119 b 210 486 282 119 210 315 b 474 853 210 657 282 853 b 736 486 665 853 736 657 b 474 119 736 315 665 119 z m 474 989 b 60 486 172 989 60 718 b 474 -17 60 254 172 -17 b 886 486 774 -17 886 254 b 474 989 886 718 774 989 z "},"1":{"ha":510,"x_min":0,"x_max":0,"o":"m 274 972 l 424 972 l 424 0 l 274 0 l 274 594 b 294 758 274 683 294 758 l 272 758 b 39 563 244 664 165 567 l 39 703 b 274 972 208 711 274 839 z "},"2":{"ha":849,"x_min":0,"x_max":0,"o":"m 463 136 l 786 136 l 786 0 l 74 0 l 74 121 b 465 467 74 121 390 401 b 625 690 538 531 625 622 b 421 853 625 767 568 853 b 215 689 274 853 215 765 b 217 657 215 679 215 668 l 67 657 b 65 689 65 667 65 678 b 422 989 65 828 168 989 b 775 689 674 989 775 828 b 635 433 775 585 694 488 b 299 136 571 376 299 136 l 299 114 b 463 136 299 114 375 136 z "},"3":{"ha":818,"x_min":0,"x_max":0,"o":"m 760 294 b 406 -17 760 115 624 -17 b 49 279 186 -17 49 115 b 49 292 49 283 49 288 l 199 292 b 199 279 199 288 199 283 b 404 119 199 182 288 119 b 610 310 524 119 610 182 b 408 489 610 432 515 489 l 232 489 l 232 606 l 499 836 l 101 836 l 101 972 l 728 972 l 728 858 l 406 581 l 406 557 b 515 568 406 558 460 575 b 760 294 613 556 760 482 z "},"4":{"ha":935,"x_min":0,"x_max":0,"o":"m 624 836 l 624 285 b 465 307 624 285 550 307 l 185 307 l 604 836 z m 889 307 l 774 307 l 774 972 l 539 972 l 43 353 l 43 183 l 624 183 l 624 0 l 774 0 l 774 183 l 889 183 z "},"5":{"ha":878,"x_min":0,"x_max":0,"o":"m 826 338 b 447 -17 826 175 718 -17 b 65 318 183 -17 72 161 l 218 318 b 446 119 228 226 290 119 b 676 349 611 119 676 242 b 446 583 676 457 611 583 b 261 497 343 583 289 535 l 85 497 l 157 972 l 751 972 l 751 836 l 279 836 l 267 739 b 222 592 257 657 222 592 l 243 592 b 472 694 281 651 346 694 b 826 338 718 696 826 514 z "},"6":{"ha":926,"x_min":0,"x_max":0,"o":"m 468 119 b 218 336 289 119 218 238 b 468 557 218 439 289 557 b 718 336 649 557 718 439 b 468 119 718 238 649 119 z m 496 694 b 193 447 310 694 197 556 l 171 447 b 451 853 158 708 292 853 b 696 708 586 853 667 788 l 839 708 b 463 989 803 847 674 989 b 54 486 165 989 54 717 b 489 -17 54 136 244 -17 b 868 339 733 -17 868 147 b 496 694 868 529 740 694 z "},"7":{"ha":757,"x_min":0,"x_max":0,"o":"m 26 972 l 735 972 l 735 854 b 386 0 435 654 386 265 l 236 0 b 539 836 236 257 311 657 l 539 858 b 364 836 539 858 450 836 l 26 836 z "},"8":{"ha":883,"x_min":0,"x_max":0,"o":"m 442 119 b 204 296 336 119 204 168 b 442 472 204 424 336 472 b 679 296 547 472 679 424 b 442 119 679 168 547 119 z m 244 725 b 442 853 244 818 350 853 b 638 725 533 853 638 818 b 442 597 638 632 533 597 b 244 725 350 597 244 632 z m 592 522 l 592 544 b 786 756 692 571 786 644 b 442 989 786 886 654 989 b 97 756 228 989 97 886 b 292 544 97 644 192 571 l 292 522 b 54 261 171 494 54 401 b 442 -17 54 103 201 -17 b 829 261 681 -17 829 103 b 592 522 829 401 713 494 z "},"9":{"ha":926,"x_min":0,"x_max":0,"o":"m 458 853 b 710 636 638 853 710 735 b 458 415 710 533 638 415 b 208 636 278 415 208 533 b 458 853 208 735 278 853 z m 431 278 b 735 525 617 278 731 417 l 757 525 b 476 119 768 264 635 119 b 231 264 340 119 260 185 l 88 264 b 464 -17 124 125 253 -17 b 872 486 761 -17 872 256 b 438 989 872 836 682 989 b 58 633 194 989 58 825 b 431 278 58 443 186 278 z "}," ":{"ha":376,"x_min":0,"x_max":0,"o":""}," ":{"ha":376,"x_min":0,"x_max":0,"o":""},"A":{"ha":915,"x_min":0,"x_max":0,"o":"m 553 972 l 363 972 l 14 0 l 150 0 l 229 222 l 688 222 l 765 0 l 901 0 z m 272 346 l 446 836 l 468 836 l 643 346 z "},"Á":{"ha":915,"x_min":0,"x_max":0,"o":"m 553 972 l 363 972 l 14 0 l 150 0 l 229 222 l 688 222 l 765 0 l 901 0 z m 272 346 l 446 836 l 468 836 l 643 346 z m 631 1244 l 492 1244 l 400 1044 l 528 1044 z "},"Â":{"ha":915,"x_min":0,"x_max":0,"o":"m 553 972 l 363 972 l 14 0 l 150 0 l 229 222 l 688 222 l 765 0 l 901 0 z m 272 346 l 446 836 l 468 836 l 643 346 z m 542 1244 l 374 1244 l 253 1071 l 383 1071 l 453 1171 l 463 1171 l 532 1071 l 663 1071 z "},"Ä":{"ha":915,"x_min":0,"x_max":0,"o":"m 553 972 l 363 972 l 14 0 l 150 0 l 229 222 l 688 222 l 765 0 l 901 0 z m 272 346 l 446 836 l 468 836 l 643 346 z m 331 1093 b 407 1169 371 1093 407 1128 b 331 1246 407 1213 371 1246 b 251 1169 288 1246 251 1213 b 331 1093 251 1128 288 1093 z m 586 1093 b 663 1169 626 1093 663 1128 b 586 1246 663 1213 626 1246 b 507 1169 544 1246 507 1213 b 586 1093 507 1128 544 1093 z "},"Å":{"ha":915,"x_min":0,"x_max":0,"o":"m 553 972 l 363 972 l 14 0 l 150 0 l 229 222 l 688 222 l 765 0 l 901 0 z m 272 346 l 446 836 l 468 836 l 643 346 z m 461 1161 b 385 1242 406 1161 385 1203 b 461 1321 385 1279 406 1321 b 539 1242 518 1321 539 1279 b 461 1161 539 1203 518 1161 z m 461 1415 b 285 1242 333 1415 285 1322 b 461 1068 285 1160 333 1068 b 639 1242 590 1068 639 1160 b 461 1415 639 1322 590 1415 z "},"B":{"ha":899,"x_min":0,"x_max":0,"o":"m 492 136 l 257 136 l 257 444 l 492 444 b 697 290 607 444 697 400 b 492 136 697 179 607 136 z m 489 579 l 257 579 l 257 836 l 489 836 b 651 708 579 836 651 796 b 489 579 651 619 579 579 z m 849 253 b 588 503 849 417 707 490 l 588 525 b 792 733 686 538 792 600 b 479 972 792 897 635 972 l 107 972 l 107 0 l 483 0 b 849 253 660 0 849 65 z "},"C":{"ha":997,"x_min":0,"x_max":0,"o":"m 788 290 l 950 290 b 518 -17 917 192 808 -17 b 54 486 188 -17 54 254 b 518 989 54 718 188 989 b 950 682 808 989 917 782 l 788 682 b 517 853 753 760 671 853 b 204 488 293 853 204 656 b 517 119 204 317 293 119 b 788 290 671 119 753 213 z "},"Č":{"ha":997,"x_min":0,"x_max":0,"o":"m 788 290 l 950 290 b 518 -17 917 192 808 -17 b 54 486 188 -17 54 254 b 518 989 54 718 188 989 b 950 682 808 989 917 782 l 788 682 b 517 853 753 760 671 853 b 204 488 293 853 204 656 b 517 119 204 317 293 119 b 788 290 671 119 753 213 z m 433 1072 l 601 1072 l 722 1246 l 592 1246 l 522 1144 l 513 1144 l 443 1246 l 313 1246 z "},"D":{"ha":982,"x_min":0,"x_max":0,"o":"m 447 139 l 257 139 l 257 836 l 447 836 b 778 486 665 836 778 678 b 447 139 778 294 665 139 z m 928 486 b 450 972 928 799 725 972 l 107 972 l 107 0 l 450 0 b 928 486 733 0 928 176 z "},"Ď":{"ha":982,"x_min":0,"x_max":0,"o":"m 447 139 l 257 139 l 257 836 l 447 836 b 778 486 665 836 778 678 b 447 139 778 294 665 139 z m 928 486 b 450 972 928 799 725 972 l 107 972 l 107 0 l 450 0 b 928 486 733 0 928 176 z m 349 1072 l 517 1072 l 638 1246 l 507 1246 l 438 1144 l 428 1144 l 358 1246 l 228 1246 z "},"E":{"ha":786,"x_min":0,"x_max":0,"o":"m 717 972 l 107 972 l 107 0 l 717 0 l 717 136 l 257 136 l 257 428 l 671 428 l 671 560 l 257 560 l 257 836 l 717 836 z "},"É":{"ha":786,"x_min":0,"x_max":0,"o":"m 717 972 l 107 972 l 107 0 l 717 0 l 717 136 l 257 136 l 257 428 l 671 428 l 671 560 l 257 560 l 257 836 l 717 836 z m 568 1246 l 429 1246 l 338 1046 l 465 1046 z "},"Ĕ":{"ha":786,"x_min":0,"x_max":0,"o":"m 717 972 l 107 972 l 107 0 l 717 0 l 717 136 l 257 136 l 257 428 l 671 428 l 671 560 l 257 560 l 257 836 l 717 836 z m 596 1246 l 492 1246 b 410 1164 492 1210 469 1164 b 331 1246 353 1164 331 1210 l 226 1246 b 410 1065 226 1163 276 1065 b 596 1246 546 1065 596 1163 z "},"Ě":{"ha":786,"x_min":0,"x_max":0,"o":"m 717 972 l 107 972 l 107 0 l 717 0 l 717 136 l 257 136 l 257 428 l 671 428 l 671 560 l 257 560 l 257 836 l 717 836 z m 324 1072 l 492 1072 l 613 1246 l 482 1246 l 413 1144 l 403 1144 l 333 1246 l 203 1246 z "},"Ê":{"ha":786,"x_min":0,"x_max":0,"o":"m 717 972 l 107 972 l 107 0 l 717 0 l 717 136 l 257 136 l 257 428 l 671 428 l 671 560 l 257 560 l 257 836 l 717 836 z m 496 1246 l 328 1246 l 207 1072 l 338 1072 l 407 1172 l 417 1172 l 486 1072 l 617 1072 z "},"Ë":{"ha":786,"x_min":0,"x_max":0,"o":"m 717 972 l 107 972 l 107 0 l 717 0 l 717 136 l 257 136 l 257 428 l 671 428 l 671 560 l 257 560 l 257 836 l 717 836 z m 293 1093 b 369 1169 333 1093 369 1128 b 293 1246 369 1213 333 1246 b 214 1169 250 1246 214 1213 b 293 1093 214 1128 250 1093 z m 549 1093 b 625 1169 589 1093 625 1128 b 549 1246 625 1213 589 1246 b 469 1169 507 1246 469 1213 b 549 1093 469 1128 507 1093 z "},"F":{"ha":738,"x_min":0,"x_max":0,"o":"m 699 836 l 699 972 l 107 972 l 107 0 l 257 0 l 257 428 l 621 428 l 621 560 l 257 560 l 257 836 z "},"G":{"ha":1028,"x_min":0,"x_max":0,"o":"m 958 479 l 958 0 l 821 0 l 821 60 b 878 310 821 142 864 269 l 856 310 b 469 -17 842 236 763 -17 b 54 485 261 -17 54 147 b 522 989 54 728 183 989 b 957 682 818 989 925 775 l 796 682 b 522 853 768 750 685 853 b 204 488 293 853 204 656 b 518 119 204 318 293 121 b 800 396 699 121 800 268 b 772 425 800 411 788 425 l 504 425 l 504 560 l 878 560 b 958 479 925 560 958 525 z "},"H":{"ha":983,"x_min":0,"x_max":0,"o":"m 876 972 l 726 972 l 726 563 l 257 563 l 257 972 l 107 972 l 107 0 l 257 0 l 257 426 l 726 426 l 726 0 l 876 0 z "},"I":{"ha":364,"x_min":0,"x_max":0,"o":"m 107 972 l 107 0 l 257 0 l 257 972 z "},"Í":{"ha":364,"x_min":0,"x_max":0,"o":"m 107 972 l 107 0 l 257 0 l 257 972 z m 350 1244 l 211 1244 l 119 1044 l 247 1044 z "},"Ĭ":{"ha":364,"x_min":0,"x_max":0,"o":"m 107 972 l 107 0 l 257 0 l 257 972 z m 367 1244 l 263 1244 b 181 1163 263 1208 240 1163 b 101 1244 124 1163 101 1208 l -3 1244 b 181 1064 -3 1161 47 1064 b 367 1244 317 1064 367 1161 z "},"Î":{"ha":364,"x_min":0,"x_max":0,"o":"m 107 972 l 107 0 l 257 0 l 257 972 z m 265 1244 l 97 1244 l -24 1071 l 107 1071 l 176 1171 l 186 1171 l 256 1071 l 386 1071 z "},"Ï":{"ha":364,"x_min":0,"x_max":0,"o":"m 107 972 l 107 0 l 257 0 l 257 972 z m 54 1092 b 131 1168 94 1092 131 1126 b 54 1244 131 1211 94 1244 b -25 1168 11 1244 -25 1211 b 54 1092 -25 1126 11 1092 z m 310 1092 b 386 1168 350 1092 386 1126 b 310 1244 386 1211 350 1244 b 231 1168 268 1244 231 1211 b 310 1092 231 1126 268 1092 z "},"İ":{"ha":364,"x_min":0,"x_max":0,"o":"m 107 972 l 107 0 l 257 0 l 257 972 z m 183 1092 b 260 1168 224 1092 260 1126 b 183 1244 260 1211 224 1244 b 104 1168 140 1244 104 1211 b 183 1092 104 1126 140 1092 z "},"Ì":{"ha":364,"x_min":0,"x_max":0,"o":"m 107 972 l 107 0 l 257 0 l 257 972 z m 14 1244 l 117 1044 l 244 1044 l 153 1244 z "},"J":{"ha":540,"x_min":0,"x_max":0,"o":"m 89 972 l 436 972 l 436 315 b 126 0 436 140 299 0 b 19 0 29 0 44 0 l 19 136 b 126 136 65 136 94 136 b 286 299 214 136 286 208 l 286 836 l 89 836 z "},"K":{"ha":915,"x_min":0,"x_max":0,"o":"m 896 972 l 692 972 l 288 549 l 257 549 l 257 972 l 107 972 l 107 0 l 257 0 l 257 414 l 288 414 l 683 0 l 888 0 l 436 469 l 436 492 z "},"L":{"ha":735,"x_min":0,"x_max":0,"o":"m 257 972 l 107 972 l 107 0 l 707 0 l 707 136 l 257 136 z "},"Ĺ":{"ha":735,"x_min":0,"x_max":0,"o":"m 257 972 l 107 972 l 107 0 l 707 0 l 707 136 l 257 136 z m 349 1244 l 210 1244 l 118 1044 l 246 1044 z "},"Ľ":{"ha":735,"x_min":0,"x_max":0,"o":"m 257 972 l 107 972 l 107 0 l 707 0 l 707 136 l 257 136 z m 536 972 l 386 972 l 401 599 l 521 599 z "},"Ł":{"ha":763,"x_min":0,"x_max":0,"o":"m 285 972 l 135 972 l 135 0 l 735 0 l 735 136 l 285 136 z m 42 419 l 42 303 l 458 517 l 458 633 z "},"M":{"ha":1308,"x_min":0,"x_max":0,"o":"m 951 972 l 1201 972 l 1201 0 l 1051 0 l 1051 678 b 1064 836 1051 757 1064 836 l 1042 836 l 754 0 l 554 0 l 267 836 l 244 836 b 257 678 244 836 257 757 l 257 0 l 107 0 l 107 972 l 356 972 l 643 136 l 665 136 z "},"N":{"ha":1071,"x_min":0,"x_max":0,"o":"m 814 314 l 814 972 l 964 972 l 964 0 l 731 0 l 267 836 l 246 836 b 257 663 246 836 257 756 l 257 0 l 107 0 l 107 972 l 339 972 l 804 136 l 825 136 b 814 314 825 136 814 218 z "},"Ň":{"ha":1071,"x_min":0,"x_max":0,"o":"m 814 314 l 814 972 l 964 972 l 964 0 l 731 0 l 267 836 l 246 836 b 257 663 246 836 257 756 l 257 0 l 107 0 l 107 972 l 339 972 l 804 136 l 825 136 b 814 314 825 136 814 218 z m 451 1072 l 619 1072 l 740 1246 l 610 1246 l 540 1144 l 531 1144 l 461 1246 l 331 1246 z "},"O":{"ha":1025,"x_min":0,"x_max":0,"o":"m 513 119 b 204 486 292 119 204 317 b 513 853 204 656 292 853 b 821 486 733 853 821 656 b 513 119 821 317 733 119 z m 514 989 b 54 485 186 989 54 718 b 514 -17 54 254 186 -17 b 971 485 840 -17 971 254 b 514 989 971 718 840 989 z "},"Ó":{"ha":1025,"x_min":0,"x_max":0,"o":"m 513 119 b 204 486 292 119 204 317 b 513 853 204 656 292 853 b 821 486 733 853 821 656 b 513 119 821 317 733 119 z m 514 989 b 54 485 186 989 54 718 b 514 -17 54 254 186 -17 b 971 485 840 -17 971 254 b 514 989 971 718 840 989 z m 676 1246 l 538 1246 l 446 1046 l 574 1046 z "},"Ô":{"ha":1025,"x_min":0,"x_max":0,"o":"m 513 119 b 204 486 292 119 204 317 b 513 853 204 656 292 853 b 821 486 733 853 821 656 b 513 119 821 317 733 119 z m 514 989 b 54 485 186 989 54 718 b 514 -17 54 254 186 -17 b 971 485 840 -17 971 254 b 514 989 971 718 840 989 z m 599 1246 l 431 1246 l 310 1072 l 440 1072 l 510 1172 l 519 1172 l 589 1072 l 719 1072 z "},"Ö":{"ha":1025,"x_min":0,"x_max":0,"o":"m 513 119 b 204 486 292 119 204 317 b 513 853 204 656 292 853 b 821 486 733 853 821 656 b 513 119 821 317 733 119 z m 514 989 b 54 485 186 989 54 718 b 514 -17 54 254 186 -17 b 971 485 840 -17 971 254 b 514 989 971 718 840 989 z m 385 1093 b 461 1169 425 1093 461 1128 b 385 1246 461 1213 425 1246 b 306 1169 342 1246 306 1213 b 385 1093 306 1128 342 1093 z m 640 1093 b 717 1169 681 1093 717 1128 b 640 1246 717 1213 681 1246 b 561 1169 599 1246 561 1213 b 640 1093 561 1128 599 1093 z "},"Ő":{"ha":1025,"x_min":0,"x_max":0,"o":"m 513 119 b 204 486 292 119 204 317 b 513 853 204 656 292 853 b 821 486 733 853 821 656 b 513 119 821 317 733 119 z m 514 989 b 54 485 186 989 54 718 b 514 -17 54 254 186 -17 b 971 485 840 -17 971 254 b 514 989 971 718 840 989 z m 781 1246 l 642 1246 l 550 1046 l 678 1046 z m 575 1246 l 436 1246 l 344 1046 l 472 1046 z "},"Ø":{"ha":1039,"x_min":0,"x_max":0,"o":"m 519 119 b 211 486 299 119 211 317 b 519 853 211 656 299 853 b 828 486 740 853 828 656 b 519 119 828 317 740 119 z m 521 989 b 61 485 193 989 61 718 b 521 -17 61 254 193 -17 b 978 485 847 -17 978 254 b 521 989 978 718 847 989 z m 974 982 l 814 982 l 65 -10 l 226 -10 z "},"Ǿ":{"ha":1039,"x_min":0,"x_max":0,"o":"m 519 119 b 211 486 299 119 211 317 b 519 853 211 656 299 853 b 828 486 740 853 828 656 b 519 119 828 317 740 119 z m 521 989 b 61 485 193 989 61 718 b 521 -17 61 254 193 -17 b 978 485 847 -17 978 254 b 521 989 978 718 847 989 z m 974 982 l 814 982 l 65 -10 l 226 -10 z m 690 1246 l 551 1246 l 460 1046 l 588 1046 z "},"P":{"ha":871,"x_min":0,"x_max":0,"o":"m 533 560 l 257 560 l 257 836 l 533 836 b 686 699 617 836 686 785 b 533 560 686 613 617 560 z m 550 972 l 107 972 l 107 0 l 257 0 l 257 424 l 550 424 b 836 699 707 424 836 533 b 550 972 836 863 708 972 z "},"Q":{"ha":1028,"x_min":0,"x_max":0,"o":"m 201 496 b 504 854 201 661 288 854 b 808 496 722 854 808 661 b 504 135 808 328 707 135 b 201 496 288 135 201 328 z m 699 106 l 699 128 b 956 493 839 171 956 288 b 506 989 956 722 828 989 b 54 493 183 989 54 722 b 506 0 54 267 183 0 l 954 0 l 954 136 l 878 136 b 699 106 792 136 699 106 z "},"R":{"ha":911,"x_min":0,"x_max":0,"o":"m 533 558 l 257 558 l 257 836 l 533 836 b 688 697 617 836 688 785 b 533 558 688 611 617 558 z m 664 490 l 664 513 b 838 731 692 521 838 578 b 550 972 838 865 747 972 l 107 972 l 107 0 l 254 0 l 254 422 l 589 422 b 681 332 639 422 681 382 b 681 0 681 232 681 0 l 818 0 b 818 336 818 0 818 232 b 664 490 818 421 747 490 z "},"Ř":{"ha":911,"x_min":0,"x_max":0,"o":"m 533 558 l 257 558 l 257 836 l 533 836 b 688 697 617 836 688 785 b 533 558 688 611 617 558 z m 664 490 l 664 513 b 838 731 692 521 838 578 b 550 972 838 865 747 972 l 107 972 l 107 0 l 254 0 l 254 422 l 589 422 b 681 332 639 422 681 382 b 681 0 681 232 681 0 l 818 0 b 818 336 818 0 818 232 b 664 490 818 421 747 490 z m 344 1072 l 513 1072 l 633 1246 l 503 1246 l 433 1144 l 424 1144 l 354 1246 l 224 1246 z "},"S":{"ha":840,"x_min":0,"x_max":0,"o":"m 782 282 b 415 -17 782 143 678 -17 b 49 288 153 -17 49 149 l 199 288 b 415 119 199 210 260 119 b 632 282 571 119 632 204 b 383 428 632 388 482 410 b 60 706 246 454 60 500 b 417 989 60 836 161 989 b 776 706 675 989 776 836 b 776 696 776 703 776 700 l 626 696 b 626 706 626 700 626 703 b 417 853 626 772 569 853 b 210 706 268 853 210 772 b 410 561 210 610 297 581 b 782 282 582 533 782 486 z "},"Š":{"ha":840,"x_min":0,"x_max":0,"o":"m 782 282 b 415 -17 782 143 678 -17 b 49 288 153 -17 49 149 l 199 288 b 415 119 199 210 260 119 b 632 282 571 119 632 204 b 383 428 632 388 482 410 b 60 706 246 454 60 500 b 417 989 60 836 161 989 b 776 706 675 989 776 836 b 776 696 776 703 776 700 l 626 696 b 626 706 626 700 626 703 b 417 853 626 772 569 853 b 210 706 268 853 210 772 b 410 561 210 610 297 581 b 782 282 582 533 782 486 z m 322 1072 l 490 1072 l 611 1246 l 481 1246 l 411 1144 l 401 1144 l 332 1246 l 201 1246 z "},"T":{"ha":772,"x_min":0,"x_max":0,"o":"m 750 972 l 22 972 l 22 836 l 311 836 l 311 0 l 461 0 l 461 836 l 750 836 z "},"Ť":{"ha":772,"x_min":0,"x_max":0,"o":"m 750 972 l 22 972 l 22 836 l 311 836 l 311 0 l 461 0 l 461 836 l 750 836 z m 301 1071 l 469 1071 l 590 1244 l 460 1244 l 390 1143 l 381 1143 l 311 1244 l 181 1244 z "},"U":{"ha":972,"x_min":0,"x_max":0,"o":"m 726 406 l 726 972 l 876 972 l 876 406 b 486 -17 876 222 774 -17 b 96 406 200 -17 96 225 l 96 972 l 246 972 l 246 406 b 486 119 246 274 314 119 b 726 406 660 119 726 274 z "},"Ú":{"ha":972,"x_min":0,"x_max":0,"o":"m 726 406 l 726 972 l 876 972 l 876 406 b 486 -17 876 222 774 -17 b 96 406 200 -17 96 225 l 96 972 l 246 972 l 246 406 b 486 119 246 274 314 119 b 726 406 660 119 726 274 z m 644 1246 l 506 1246 l 414 1046 l 542 1046 z "},"Ü":{"ha":972,"x_min":0,"x_max":0,"o":"m 726 406 l 726 972 l 876 972 l 876 406 b 486 -17 876 222 774 -17 b 96 406 200 -17 96 225 l 96 972 l 246 972 l 246 406 b 486 119 246 274 314 119 b 726 406 660 119 726 274 z m 374 1093 b 450 1169 414 1093 450 1128 b 374 1246 450 1213 414 1246 b 294 1169 331 1246 294 1213 b 374 1093 294 1128 331 1093 z m 629 1093 b 706 1169 669 1093 706 1128 b 629 1246 706 1213 669 1246 b 550 1169 588 1246 550 1213 b 629 1093 550 1128 588 1093 z "},"Ű":{"ha":972,"x_min":0,"x_max":0,"o":"m 726 406 l 726 972 l 876 972 l 876 406 b 486 -17 876 222 774 -17 b 96 406 200 -17 96 225 l 96 972 l 246 972 l 246 406 b 486 119 246 274 314 119 b 726 406 660 119 726 274 z m 753 1246 l 614 1246 l 522 1046 l 650 1046 z m 547 1246 l 408 1246 l 317 1046 l 444 1046 z "},"Ů":{"ha":972,"x_min":0,"x_max":0,"o":"m 726 406 l 726 972 l 876 972 l 876 406 b 486 -17 876 222 774 -17 b 96 406 200 -17 96 225 l 96 972 l 246 972 l 246 406 b 486 119 246 274 314 119 b 726 406 660 119 726 274 z m 485 1136 b 408 1217 429 1136 408 1178 b 485 1296 408 1254 429 1296 b 563 1217 542 1296 563 1254 b 485 1136 563 1178 542 1136 z m 485 1390 b 308 1217 357 1390 308 1297 b 485 1043 308 1135 357 1043 b 663 1217 614 1043 663 1135 b 485 1390 663 1297 614 1390 z "},"V":{"ha":931,"x_min":0,"x_max":0,"o":"m 758 972 l 917 972 l 583 0 l 347 0 l 14 972 l 172 972 l 436 213 b 456 136 450 172 456 136 l 475 136 b 494 213 475 136 482 172 b 758 972 501 235 758 972 z "},"W":{"ha":1492,"x_min":0,"x_max":0,"o":"m 1322 972 l 1471 972 l 1215 0 l 979 0 b 771 761 979 0 771 761 b 756 836 761 794 756 836 l 733 836 b 721 761 733 836 729 793 l 511 0 l 276 0 l 21 972 l 169 972 b 386 204 169 972 386 204 b 401 136 394 174 401 136 l 422 136 b 436 204 422 136 429 174 l 647 972 l 843 972 b 1054 203 843 972 1054 203 b 1069 136 1063 174 1069 136 l 1090 136 b 1106 203 1090 136 1097 174 b 1322 972 1111 225 1322 972 z "},"X":{"ha":1011,"x_min":0,"x_max":0,"o":"m 990 972 l 806 972 l 506 550 l 206 972 l 21 972 l 365 490 l 18 0 l 201 0 l 494 414 l 515 414 l 810 0 l 993 0 l 646 490 z "},"Y":{"ha":829,"x_min":0,"x_max":0,"o":"m 453 624 l 661 972 l 815 972 l 489 418 l 489 0 l 339 0 l 339 419 l 14 972 l 168 972 l 375 624 b 403 558 394 590 403 558 l 425 558 b 453 624 425 558 433 590 z "},"Ý":{"ha":829,"x_min":0,"x_max":0,"o":"m 453 624 l 661 972 l 815 972 l 489 418 l 489 0 l 339 0 l 339 419 l 14 972 l 168 972 l 375 624 b 403 558 394 590 403 558 l 425 558 b 453 624 425 558 433 590 z m 593 1246 l 454 1246 l 363 1046 l 490 1046 z "},"Ÿ":{"ha":829,"x_min":0,"x_max":0,"o":"m 453 624 l 661 972 l 815 972 l 489 418 l 489 0 l 339 0 l 339 419 l 14 972 l 168 972 l 375 624 b 403 558 394 590 403 558 l 425 558 b 453 624 425 558 433 590 z m 286 1093 b 363 1169 326 1093 363 1128 b 286 1246 363 1213 326 1246 b 207 1169 243 1246 207 1213 b 286 1093 207 1128 243 1093 z m 542 1093 b 618 1169 582 1093 618 1128 b 542 1246 618 1213 582 1246 b 463 1169 500 1246 463 1213 b 542 1093 463 1128 500 1093 z "},"Z":{"ha":846,"x_min":0,"x_max":0,"o":"m 228 154 l 228 136 l 790 136 l 790 0 l 46 0 l 46 117 l 521 740 b 607 817 571 804 607 817 l 607 836 l 75 836 l 75 972 l 788 972 l 788 856 l 322 243 b 228 154 269 175 228 154 z "},"Ž":{"ha":846,"x_min":0,"x_max":0,"o":"m 228 154 l 228 136 l 790 136 l 790 0 l 46 0 l 46 117 l 521 740 b 607 817 571 804 607 817 l 607 836 l 75 836 l 75 972 l 788 972 l 788 856 l 322 243 b 228 154 269 175 228 154 z m 339 1072 l 507 1072 l 628 1246 l 497 1246 l 428 1144 l 418 1144 l 349 1246 l 218 1246 z "},"a":{"ha":811,"x_min":0,"x_max":0,"o":"m 549 368 l 549 318 b 544 261 549 299 547 278 b 446 126 538 211 504 158 b 297 100 389 96 351 94 b 197 206 244 110 197 149 b 311 314 197 269 258 306 b 549 368 456 336 526 351 z m 783 135 l 729 135 b 699 164 711 135 699 149 l 699 431 b 381 694 699 567 594 694 b 60 439 165 694 60 565 l 206 439 b 378 571 206 508 268 571 b 539 478 464 571 526 531 b 446 408 553 428 497 419 b 217 374 383 396 306 394 b 54 182 135 354 54 303 b 235 -14 54 71 142 -4 b 472 36 319 -24 401 -10 b 589 193 556 89 589 193 l 611 193 b 589 85 611 193 589 143 b 675 -1 589 36 621 -1 l 783 -1 z "},"á":{"ha":811,"x_min":0,"x_max":0,"o":"m 549 368 l 549 318 b 544 261 549 299 547 278 b 446 126 538 211 504 158 b 297 100 389 96 351 94 b 197 206 244 110 197 149 b 311 314 197 269 258 306 b 549 368 456 336 526 351 z m 783 135 l 729 135 b 699 164 711 135 699 149 l 699 431 b 381 694 699 567 594 694 b 60 439 165 694 60 565 l 206 439 b 378 571 206 508 268 571 b 539 478 464 571 526 531 b 446 408 553 428 497 419 b 217 374 383 396 306 394 b 54 182 135 354 54 303 b 235 -14 54 71 142 -4 b 472 36 319 -24 401 -10 b 589 193 556 89 589 193 l 611 193 b 589 85 611 193 589 143 b 675 -1 589 36 621 -1 l 783 -1 z m 557 1004 l 418 1004 l 326 804 l 454 804 z "},"â":{"ha":811,"x_min":0,"x_max":0,"o":"m 549 368 l 549 318 b 544 261 549 299 547 278 b 446 126 538 211 504 158 b 297 100 389 96 351 94 b 197 206 244 110 197 149 b 311 314 197 269 258 306 b 549 368 456 336 526 351 z m 783 135 l 729 135 b 699 164 711 135 699 149 l 699 431 b 381 694 699 567 594 694 b 60 439 165 694 60 565 l 206 439 b 378 571 206 508 268 571 b 539 478 464 571 526 531 b 446 408 553 428 497 419 b 217 374 383 396 306 394 b 54 182 135 354 54 303 b 235 -14 54 71 142 -4 b 472 36 319 -24 401 -10 b 589 193 556 89 589 193 l 611 193 b 589 85 611 193 589 143 b 675 -1 589 36 621 -1 l 783 -1 z m 481 1004 l 313 1004 l 192 831 l 322 831 l 392 931 l 401 931 l 471 831 l 601 831 z "},"ä":{"ha":811,"x_min":0,"x_max":0,"o":"m 549 368 l 549 318 b 544 261 549 299 547 278 b 446 126 538 211 504 158 b 297 100 389 96 351 94 b 197 206 244 110 197 149 b 311 314 197 269 258 306 b 549 368 456 336 526 351 z m 783 135 l 729 135 b 699 164 711 135 699 149 l 699 431 b 381 694 699 567 594 694 b 60 439 165 694 60 565 l 206 439 b 378 571 206 508 268 571 b 539 478 464 571 526 531 b 446 408 553 428 497 419 b 217 374 383 396 306 394 b 54 182 135 354 54 303 b 235 -14 54 71 142 -4 b 472 36 319 -24 401 -10 b 589 193 556 89 589 193 l 611 193 b 589 85 611 193 589 143 b 675 -1 589 36 621 -1 l 783 -1 z m 274 851 b 350 928 314 851 350 886 b 274 1004 350 971 314 1004 b 194 928 231 1004 194 971 b 274 851 194 886 231 851 z m 529 851 b 606 928 569 851 606 886 b 529 1004 606 971 569 1004 b 450 928 488 1004 450 971 b 529 851 450 886 488 851 z "},"å":{"ha":811,"x_min":0,"x_max":0,"o":"m 549 368 l 549 318 b 544 261 549 299 547 278 b 446 126 538 211 504 158 b 297 100 389 96 351 94 b 197 206 244 110 197 149 b 311 314 197 269 258 306 b 549 368 456 336 526 351 z m 783 135 l 729 135 b 699 164 711 135 699 149 l 699 431 b 381 694 699 567 594 694 b 60 439 165 694 60 565 l 206 439 b 378 571 206 508 268 571 b 539 478 464 571 526 531 b 446 408 553 428 497 419 b 217 374 383 396 306 394 b 54 182 135 354 54 303 b 235 -14 54 71 142 -4 b 472 36 319 -24 401 -10 b 589 193 556 89 589 193 l 611 193 b 589 85 611 193 589 143 b 675 -1 589 36 621 -1 l 783 -1 z m 382 924 b 306 1004 326 924 306 965 b 382 1083 306 1042 326 1083 b 460 1004 439 1083 460 1042 b 382 924 460 965 439 924 z m 382 1178 b 206 1004 254 1178 206 1085 b 382 831 206 922 254 831 b 560 1004 511 831 560 922 b 382 1178 560 1085 511 1178 z "},"b":{"ha":819,"x_min":0,"x_max":0,"o":"m 424 119 b 226 339 304 119 226 213 b 424 558 226 465 306 558 b 622 339 543 558 622 465 b 424 119 622 213 543 119 z m 465 694 b 226 546 326 694 258 617 l 204 546 b 226 708 204 546 226 618 l 226 972 l 76 972 l 76 0 l 226 0 l 226 11 b 204 132 226 71 204 132 l 226 132 b 469 -17 258 61 326 -17 b 772 339 679 -17 772 167 b 465 694 772 511 679 694 z "},"c":{"ha":738,"x_min":0,"x_max":0,"o":"m 539 221 l 697 221 b 381 -17 665 100 571 -17 b 47 339 138 -17 47 175 b 381 694 47 503 138 694 b 697 456 571 694 665 575 l 539 456 b 381 558 518 506 469 558 b 197 339 247 558 197 440 b 381 119 197 238 247 119 b 539 221 469 119 518 172 z "},"č":{"ha":738,"x_min":0,"x_max":0,"o":"m 539 221 l 697 221 b 381 -17 665 100 571 -17 b 47 339 138 -17 47 175 b 381 694 47 503 138 694 b 697 456 571 694 665 575 l 539 456 b 381 558 518 506 469 558 b 197 339 247 558 197 440 b 381 119 197 238 247 119 b 539 221 469 119 518 172 z m 293 831 l 461 831 l 582 1004 l 451 1004 l 382 903 l 372 903 l 303 1004 l 172 1004 z "},"d":{"ha":814,"x_min":0,"x_max":0,"o":"m 197 339 b 393 558 197 467 274 558 b 588 339 510 558 588 467 b 393 119 588 211 511 119 b 197 339 274 119 197 211 z m 47 339 b 344 -17 47 167 135 -17 b 588 132 488 -17 556 61 l 610 132 b 588 11 610 132 588 71 l 588 0 l 738 0 l 738 972 l 588 972 l 588 708 b 610 546 588 618 610 546 l 588 546 b 349 694 556 617 488 694 b 47 339 136 694 47 511 z "},"ď":{"ha":919,"x_min":0,"x_max":0,"o":"m 197 339 b 393 558 197 467 274 558 b 588 339 510 558 588 467 b 393 119 588 211 511 119 b 197 339 274 119 197 211 z m 47 339 b 344 -17 47 167 135 -17 b 588 132 488 -17 556 61 l 610 132 b 588 11 610 132 588 71 l 588 0 l 738 0 l 738 972 l 588 972 l 588 708 b 610 546 588 618 610 546 l 588 546 b 349 694 556 617 488 694 b 47 339 136 694 47 511 z m 969 972 l 819 972 l 835 599 l 954 599 z "},"e":{"ha":761,"x_min":0,"x_max":0,"o":"m 381 571 b 569 396 504 571 561 471 l 192 397 b 381 571 203 476 258 571 z m 188 306 l 714 306 b 382 694 725 513 619 694 b 47 339 139 694 47 503 b 382 -17 47 175 139 -17 b 700 228 597 -17 678 133 l 554 228 b 381 107 531 161 478 107 b 188 306 238 107 193 228 z "},"é":{"ha":761,"x_min":0,"x_max":0,"o":"m 381 571 b 569 396 504 571 561 471 l 192 397 b 381 571 203 476 258 571 z m 188 306 l 714 306 b 382 694 725 513 619 694 b 47 339 139 694 47 503 b 382 -17 47 175 139 -17 b 700 228 597 -17 678 133 l 554 228 b 381 107 531 161 478 107 b 188 306 238 107 193 228 z m 550 1006 l 411 1006 l 319 806 l 447 806 z "},"ě":{"ha":761,"x_min":0,"x_max":0,"o":"m 381 571 b 569 396 504 571 561 471 l 192 397 b 381 571 203 476 258 571 z m 188 306 l 714 306 b 382 694 725 513 619 694 b 47 339 139 694 47 503 b 382 -17 47 175 139 -17 b 700 228 597 -17 678 133 l 554 228 b 381 107 531 161 478 107 b 188 306 238 107 193 228 z m 293 831 l 461 831 l 582 1004 l 451 1004 l 382 903 l 372 903 l 303 1004 l 172 1004 z "},"ê":{"ha":761,"x_min":0,"x_max":0,"o":"m 381 571 b 569 396 504 571 561 471 l 192 397 b 381 571 203 476 258 571 z m 188 306 l 714 306 b 382 694 725 513 619 694 b 47 339 139 694 47 503 b 382 -17 47 175 139 -17 b 700 228 597 -17 678 133 l 554 228 b 381 107 531 161 478 107 b 188 306 238 107 193 228 z m 465 1004 l 297 1004 l 176 831 l 307 831 l 376 931 l 386 931 l 456 831 l 586 831 z "},"ë":{"ha":761,"x_min":0,"x_max":0,"o":"m 381 571 b 569 396 504 571 561 471 l 192 397 b 381 571 203 476 258 571 z m 188 306 l 714 306 b 382 694 725 513 619 694 b 47 339 139 694 47 503 b 382 -17 47 175 139 -17 b 700 228 597 -17 678 133 l 554 228 b 381 107 531 161 478 107 b 188 306 238 107 193 228 z m 251 853 b 328 929 292 853 328 888 b 251 1006 328 972 292 1006 b 172 929 208 1006 172 972 b 251 853 172 888 208 853 z m 507 853 b 583 929 547 853 583 888 b 507 1006 583 972 547 1006 b 428 929 465 1006 428 972 b 507 853 428 888 465 853 z "},"f":{"ha":497,"x_min":0,"x_max":0,"o":"m 126 721 l 126 678 l 17 678 l 17 542 l 126 542 l 126 0 l 276 0 l 276 542 l 476 542 l 476 678 l 276 678 l 276 743 b 357 836 276 789 301 836 l 478 836 l 478 972 l 361 972 b 126 721 192 972 126 838 z "},"g":{"ha":821,"x_min":0,"x_max":0,"o":"m 375 86 b 693 389 565 86 693 207 b 607 510 693 443 621 468 b 361 694 590 604 497 694 b 56 389 181 694 56 572 b 375 86 56 207 197 86 z m 375 210 b 181 389 261 210 181 283 b 375 571 181 496 261 571 b 568 389 488 571 568 496 b 375 210 568 283 488 210 z m 389 -293 b 156 -193 253 -293 156 -253 b 389 -93 156 -133 253 -93 b 622 -193 517 -93 622 -133 b 389 -293 622 -253 522 -293 z m 194 -39 l 194 -61 b 18 -212 131 -68 18 -110 b 390 -403 18 -324 172 -403 b 760 -193 603 -403 760 -314 b 389 17 760 -72 603 17 b 217 17 315 17 288 17 b 169 51 192 17 169 26 b 217 86 169 76 192 86 l 374 86 l 375 114 l 172 156 l 172 131 l 156 131 b 54 47 96 131 54 101 b 156 -39 54 -8 96 -39 b 194 -39 165 -39 182 -39 z m 629 510 l 607 510 l 597 407 l 693 389 l 693 515 b 719 542 693 531 704 542 l 793 542 l 793 678 l 660 678 b 608 626 631 678 608 656 b 629 510 608 575 629 510 z "},"h":{"ha":811,"x_min":0,"x_max":0,"o":"m 738 389 l 738 0 l 588 0 l 588 378 b 440 572 588 475 549 560 b 236 385 311 586 250 494 b 231 217 233 349 231 279 l 231 0 l 81 0 l 81 972 l 231 972 l 231 656 b 199 497 231 590 199 497 l 219 497 b 531 688 260 657 407 717 b 738 389 678 651 738 506 z "},"i":{"ha":340,"x_min":0,"x_max":0,"o":"m 265 626 l 265 0 l 115 0 l 115 514 b 88 542 115 529 103 542 l 26 542 l 26 678 l 214 678 b 265 626 242 678 265 656 z m 186 851 b 263 928 226 851 263 886 b 186 1004 263 971 226 1004 b 107 928 143 1004 107 971 b 186 851 107 886 143 851 z "},"í":{"ha":346,"x_min":0,"x_max":0,"o":"m 339 1004 l 200 1004 l 108 804 l 236 804 z m 265 626 l 265 0 l 115 0 l 115 514 b 88 542 115 529 103 542 l 26 542 l 26 678 l 214 678 b 265 626 242 678 265 656 z "},"î":{"ha":346,"x_min":0,"x_max":0,"o":"m 249 1004 l 81 1004 l -40 831 l 90 831 l 160 931 l 169 931 l 239 831 l 369 831 z m 265 626 l 265 0 l 115 0 l 115 514 b 88 542 115 529 103 542 l 26 542 l 26 678 l 214 678 b 265 626 242 678 265 656 z "},"ï":{"ha":346,"x_min":0,"x_max":0,"o":"m 39 851 b 115 928 79 851 115 886 b 39 1004 115 971 79 1004 b -40 928 -4 1004 -40 971 b 39 851 -40 886 -4 851 z m 294 851 b 371 928 335 851 371 886 b 294 1004 371 971 335 1004 b 215 928 253 1004 215 971 b 294 851 215 886 253 851 z m 265 626 l 265 0 l 115 0 l 115 514 b 88 542 115 529 103 542 l 26 542 l 26 678 l 214 678 b 265 626 242 678 265 656 z "},"j":{"ha":354,"x_min":0,"x_max":0,"o":"m 279 625 l 279 -185 b 81 -386 279 -285 211 -386 b -64 -386 0 -386 -29 -386 l -64 -250 b 49 -250 -53 -250 33 -250 b 129 -168 92 -250 129 -212 l 129 514 b 101 542 129 529 117 542 l 35 542 l 35 678 l 226 678 b 279 625 256 678 279 654 z m 193 851 b 269 928 232 851 269 886 b 193 1004 269 971 232 1004 b 113 928 150 1004 113 971 b 193 851 113 886 150 851 z "},"k":{"ha":725,"x_min":0,"x_max":0,"o":"m 231 972 l 81 972 l 81 0 l 231 0 l 231 239 l 265 239 l 515 0 l 699 -1 l 383 299 l 383 321 l 708 678 l 542 678 l 263 374 l 231 374 z "},"l":{"ha":311,"x_min":0,"x_max":0,"o":"m 81 972 l 81 0 l 231 0 l 231 972 z "},"ĺ":{"ha":319,"x_min":0,"x_max":0,"o":"m 81 972 l 81 0 l 231 0 l 231 972 z m 331 1246 l 192 1246 l 100 1046 l 228 1046 z "},"ľ":{"ha":415,"x_min":0,"x_max":0,"o":"m 81 972 l 81 0 l 231 0 l 231 972 z m 465 972 l 315 972 l 331 599 l 450 599 z "},"ł":{"ha":308,"x_min":0,"x_max":0,"o":"m 81 972 l 81 0 l 231 0 l 231 972 z m 306 529 l 306 644 l 3 500 l 3 385 z "},"m":{"ha":1306,"x_min":0,"x_max":0,"o":"m 1232 399 l 1232 0 l 1082 0 l 1082 388 b 935 569 1082 471 1042 558 b 731 385 800 585 746 481 b 725 232 728 347 725 288 l 725 0 l 588 0 l 588 388 b 439 568 588 471 551 557 b 236 385 306 585 250 481 b 231 232 233 349 231 290 l 231 0 l 81 0 l 81 678 l 231 678 l 231 643 b 199 497 231 578 199 497 l 221 497 b 531 688 265 657 410 717 b 685 497 663 656 688 528 l 707 497 b 1025 688 760 657 904 717 b 1232 399 1169 651 1232 506 z "},"n":{"ha":811,"x_min":0,"x_max":0,"o":"m 738 389 l 738 0 l 588 0 l 588 378 b 440 572 588 475 549 560 b 236 385 311 586 250 494 b 231 217 233 349 231 279 l 231 0 l 81 0 l 81 678 l 231 678 l 231 643 b 199 497 231 578 199 497 l 219 497 b 531 688 260 657 407 717 b 738 389 678 651 738 506 z "},"ň":{"ha":811,"x_min":0,"x_max":0,"o":"m 738 389 l 738 0 l 588 0 l 588 378 b 440 572 588 475 549 560 b 236 385 311 586 250 494 b 231 217 233 349 231 279 l 231 0 l 81 0 l 81 678 l 231 678 l 231 643 b 199 497 231 578 199 497 l 219 497 b 531 688 260 657 407 717 b 738 389 678 651 738 506 z m 326 831 l 494 831 l 615 1004 l 485 1004 l 415 903 l 406 903 l 336 1004 l 206 1004 z "},"o":{"ha":754,"x_min":0,"x_max":0,"o":"m 378 96 b 178 339 232 96 178 226 b 378 582 178 451 232 582 b 578 339 524 582 578 451 b 378 96 578 226 524 96 z m 378 694 b 47 339 138 694 47 503 b 378 -17 47 175 138 -17 b 707 339 617 -17 707 175 b 378 694 707 503 617 694 z "},"ó":{"ha":754,"x_min":0,"x_max":0,"o":"m 378 96 b 178 339 232 96 178 226 b 378 582 178 451 232 582 b 578 339 524 582 578 451 b 378 96 578 226 524 96 z m 378 694 b 47 339 138 694 47 503 b 378 -17 47 175 138 -17 b 707 339 617 -17 707 175 b 378 694 707 503 617 694 z m 543 1004 l 404 1004 l 313 804 l 440 804 z "},"ô":{"ha":754,"x_min":0,"x_max":0,"o":"m 378 96 b 178 339 232 96 178 226 b 378 582 178 451 232 582 b 578 339 524 582 578 451 b 378 96 578 226 524 96 z m 378 694 b 47 339 138 694 47 503 b 378 -17 47 175 138 -17 b 707 339 617 -17 707 175 b 378 694 707 503 617 694 z m 449 1004 l 281 1004 l 160 831 l 290 831 l 360 931 l 369 931 l 439 831 l 569 831 z "},"ö":{"ha":754,"x_min":0,"x_max":0,"o":"m 378 96 b 178 339 232 96 178 226 b 378 582 178 451 232 582 b 578 339 524 582 578 451 b 378 96 578 226 524 96 z m 378 694 b 47 339 138 694 47 503 b 378 -17 47 175 138 -17 b 707 339 617 -17 707 175 b 378 694 707 503 617 694 z m 249 851 b 325 928 289 851 325 886 b 249 1004 325 971 289 1004 b 169 928 206 1004 169 971 b 249 851 169 886 206 851 z m 504 851 b 581 928 544 851 581 886 b 504 1004 581 971 544 1004 b 425 928 463 1004 425 971 b 504 851 425 886 463 851 z "},"ő":{"ha":754,"x_min":0,"x_max":0,"o":"m 378 96 b 178 339 232 96 178 226 b 378 582 178 451 232 582 b 578 339 524 582 578 451 b 378 96 578 226 524 96 z m 378 694 b 47 339 138 694 47 503 b 378 -17 47 175 138 -17 b 707 339 617 -17 707 175 b 378 694 707 503 617 694 z m 644 1004 l 506 1004 l 414 804 l 542 804 z m 439 1004 l 300 1004 l 208 804 l 336 804 z "},"ø":{"ha":754,"x_min":0,"x_max":0,"o":"m 378 96 b 178 339 232 96 178 226 b 378 582 178 451 232 582 b 578 339 524 582 578 451 b 378 96 578 226 524 96 z m 378 694 b 47 339 138 694 47 503 b 378 -17 47 175 138 -17 b 707 339 617 -17 707 175 b 378 694 707 503 617 694 z m 683 688 l 571 688 l 74 -10 l 186 -10 z "},"ǿ":{"ha":754,"x_min":0,"x_max":0,"o":"m 378 96 b 178 339 232 96 178 226 b 378 582 178 451 232 582 b 578 339 524 582 578 451 b 378 96 578 226 524 96 z m 378 694 b 47 339 138 694 47 503 b 378 -17 47 175 138 -17 b 707 339 617 -17 707 175 b 378 694 707 503 617 694 z m 683 688 l 571 688 l 74 -10 l 186 -10 z m 549 1004 l 410 1004 l 318 804 l 446 804 z "},"p":{"ha":818,"x_min":0,"x_max":0,"o":"m 621 339 b 424 119 621 211 543 119 b 226 339 306 119 226 211 b 424 558 226 467 304 558 b 621 339 543 558 621 467 z m 771 339 b 469 694 771 511 679 694 b 226 546 326 694 258 617 l 204 546 b 226 668 204 546 226 607 l 226 678 l 76 678 l 76 -386 l 226 -386 l 226 -31 b 204 132 226 60 204 132 l 226 132 b 465 -17 258 61 326 -17 b 771 339 679 -17 771 167 z "},"q":{"ha":818,"x_min":0,"x_max":0,"o":"m 394 558 b 592 339 514 558 592 467 b 394 119 592 211 514 119 b 197 339 276 119 197 211 b 394 558 197 467 275 558 z m 353 -17 b 592 132 492 -17 560 61 l 614 132 b 592 -31 614 132 592 60 l 592 -386 l 742 -386 l 742 678 l 592 678 l 592 668 b 614 546 592 607 614 546 l 592 546 b 349 694 560 617 492 694 b 47 339 139 694 47 510 b 353 -17 47 167 140 -17 z "},"r":{"ha":572,"x_min":0,"x_max":0,"o":"m 544 678 l 544 542 b 275 260 347 542 275 393 l 275 0 l 125 0 l 125 519 b 103 542 125 533 117 542 l 28 542 l 28 678 l 196 678 b 257 624 231 678 257 660 b 236 449 257 565 236 449 l 257 449 b 544 678 296 583 393 676 z "},"ŕ":{"ha":572,"x_min":0,"x_max":0,"o":"m 544 678 l 544 542 b 275 260 347 542 275 393 l 275 0 l 125 0 l 125 519 b 103 542 125 533 117 542 l 28 542 l 28 678 l 196 678 b 257 624 231 678 257 660 b 236 449 257 565 236 449 l 257 449 b 544 678 296 583 393 676 z m 457 1004 l 318 1004 l 226 804 l 354 804 z "},"ř":{"ha":572,"x_min":0,"x_max":0,"o":"m 544 678 l 544 542 b 275 260 347 542 275 393 l 275 0 l 125 0 l 125 519 b 103 542 125 533 117 542 l 28 542 l 28 678 l 196 678 b 257 624 231 678 257 660 b 236 449 257 565 236 449 l 257 449 b 544 678 296 583 393 676 z m 199 831 l 367 831 l 488 1004 l 357 1004 l 288 903 l 278 903 l 208 1004 l 78 1004 z "},"s":{"ha":661,"x_min":0,"x_max":0,"o":"m 619 211 b 326 -17 619 86 514 -17 b 33 210 138 -17 33 86 l 171 210 b 328 107 171 138 239 107 b 472 207 396 107 472 135 b 46 485 472 371 46 215 b 328 694 46 601 146 694 b 607 485 507 694 607 601 b 607 474 607 481 607 476 l 469 474 b 469 485 469 478 469 481 b 329 571 469 543 406 571 b 193 486 261 571 193 544 b 619 211 193 357 619 493 z "},"š":{"ha":661,"x_min":0,"x_max":0,"o":"m 619 211 b 326 -17 619 86 514 -17 b 33 210 138 -17 33 86 l 171 210 b 328 107 171 138 239 107 b 472 207 396 107 472 135 b 46 485 472 371 46 215 b 328 694 46 601 146 694 b 607 485 507 694 607 601 b 607 474 607 481 607 476 l 469 474 b 469 485 469 478 469 481 b 329 571 469 543 406 571 b 193 486 261 571 193 544 b 619 211 193 357 619 493 z m 239 831 l 407 831 l 528 1004 l 397 1004 l 328 903 l 318 903 l 249 1004 l 118 1004 z "},"t":{"ha":506,"x_min":0,"x_max":0,"o":"m 126 217 l 126 542 l 17 542 l 17 678 l 126 678 l 126 972 l 276 972 l 276 678 l 478 678 l 478 542 l 276 542 l 276 218 b 357 136 276 172 313 136 b 478 136 381 136 467 136 l 478 0 b 343 0 439 0 458 0 b 126 217 199 0 126 108 z "},"ť":{"ha":501,"x_min":0,"x_max":0,"o":"m 126 217 l 126 542 l 17 542 l 17 678 l 126 678 l 126 972 l 276 972 l 276 678 l 478 678 l 478 542 l 276 542 l 276 218 b 357 136 276 172 313 136 b 478 136 381 136 467 136 l 478 0 b 343 0 439 0 458 0 b 126 217 199 0 126 108 z m 508 1246 l 358 1246 l 374 872 l 493 872 z "},"u":{"ha":811,"x_min":0,"x_max":0,"o":"m 74 289 l 74 678 l 224 678 l 224 300 b 371 106 224 203 263 118 b 575 293 500 92 563 183 b 581 461 578 329 581 399 l 581 678 l 731 678 l 731 0 l 581 0 l 581 35 b 613 181 581 100 613 181 l 592 181 b 281 -10 551 21 406 -39 b 74 289 133 26 74 172 z "},"ú":{"ha":811,"x_min":0,"x_max":0,"o":"m 74 289 l 74 678 l 224 678 l 224 300 b 371 106 224 203 263 118 b 575 293 500 92 563 183 b 581 461 578 329 581 399 l 581 678 l 731 678 l 731 0 l 581 0 l 581 35 b 613 181 581 100 613 181 l 592 181 b 281 -10 551 21 406 -39 b 74 289 133 26 74 172 z m 564 1004 l 425 1004 l 333 804 l 461 804 z "},"û":{"ha":811,"x_min":0,"x_max":0,"o":"m 74 289 l 74 678 l 224 678 l 224 300 b 371 106 224 203 263 118 b 575 293 500 92 563 183 b 581 461 578 329 581 399 l 581 678 l 731 678 l 731 0 l 581 0 l 581 35 b 613 181 581 100 613 181 l 592 181 b 281 -10 551 21 406 -39 b 74 289 133 26 74 172 z m 493 1004 l 325 1004 l 204 831 l 335 831 l 404 931 l 414 931 l 483 831 l 614 831 z "},"ü":{"ha":811,"x_min":0,"x_max":0,"o":"m 74 289 l 74 678 l 224 678 l 224 300 b 371 106 224 203 263 118 b 575 293 500 92 563 183 b 581 461 578 329 581 399 l 581 678 l 731 678 l 731 0 l 581 0 l 581 35 b 613 181 581 100 613 181 l 592 181 b 281 -10 551 21 406 -39 b 74 289 133 26 74 172 z m 285 851 b 361 928 325 851 361 886 b 285 1004 361 971 325 1004 b 206 928 242 1004 206 971 b 285 851 206 886 242 851 z m 540 851 b 617 928 581 851 617 886 b 540 1004 617 971 581 1004 b 461 928 499 1004 461 971 b 540 851 461 886 499 851 z "},"ű":{"ha":811,"x_min":0,"x_max":0,"o":"m 74 289 l 74 678 l 224 678 l 224 300 b 371 106 224 203 263 118 b 575 293 500 92 563 183 b 581 461 578 329 581 399 l 581 678 l 731 678 l 731 0 l 581 0 l 581 35 b 613 181 581 100 613 181 l 592 181 b 281 -10 551 21 406 -39 b 74 289 133 26 74 172 z m 669 1004 l 531 1004 l 439 804 l 567 804 z m 464 1004 l 325 1004 l 233 804 l 361 804 z "},"ů":{"ha":811,"x_min":0,"x_max":0,"o":"m 74 289 l 74 678 l 224 678 l 224 300 b 371 106 224 203 263 118 b 575 293 500 92 563 183 b 581 461 578 329 581 399 l 581 678 l 731 678 l 731 0 l 581 0 l 581 35 b 613 181 581 100 613 181 l 592 181 b 281 -10 551 21 406 -39 b 74 289 133 26 74 172 z m 407 958 b 331 1039 351 958 331 1000 b 407 1118 331 1076 351 1118 b 485 1039 464 1118 485 1076 b 407 958 485 1000 464 958 z m 407 1213 b 231 1039 279 1213 231 1119 b 407 865 231 957 279 865 b 585 1039 536 865 585 957 b 407 1213 585 1119 536 1213 z "},"v":{"ha":706,"x_min":0,"x_max":0,"o":"m 386 236 l 547 678 l 696 678 l 458 0 l 246 0 l 10 678 l 158 678 l 317 236 b 342 136 335 185 342 136 l 363 136 b 386 236 363 136 368 185 z "},"w":{"ha":1224,"x_min":0,"x_max":0,"o":"m 911 222 l 1050 678 l 1207 678 l 1000 0 l 781 0 l 643 456 b 624 542 629 504 624 542 l 601 542 b 583 456 601 542 597 504 l 443 0 l 225 0 l 17 678 l 174 678 b 314 226 174 678 314 226 b 336 136 329 175 336 136 l 357 136 b 381 226 357 136 365 175 b 518 678 383 235 518 678 l 710 678 l 846 222 b 868 136 861 171 868 136 l 889 136 b 911 222 889 136 896 171 z "},"x":{"ha":715,"x_min":0,"x_max":0,"o":"m 701 678 l 542 678 l 358 410 l 176 678 l 14 678 l 232 349 l 10 0 l 171 0 l 347 274 l 368 274 l 544 0 l 706 0 l 483 349 z "},"y":{"ha":715,"x_min":0,"x_max":0,"o":"m 397 236 l 560 678 l 706 678 l 376 -229 b 146 -386 350 -303 279 -386 b 24 -386 57 -386 33 -386 l 24 -258 b 151 -258 40 -258 143 -258 b 244 -190 207 -258 233 -222 l 315 0 l 256 0 l 10 678 l 156 678 l 318 236 b 347 136 344 171 347 136 l 368 136 b 397 236 368 136 371 171 z "},"ý":{"ha":715,"x_min":0,"x_max":0,"o":"m 397 236 l 560 678 l 706 678 l 376 -229 b 146 -386 350 -303 279 -386 b 24 -386 57 -386 33 -386 l 24 -258 b 151 -258 40 -258 143 -258 b 244 -190 207 -258 233 -222 l 315 0 l 256 0 l 10 678 l 156 678 l 318 236 b 347 136 344 171 347 136 l 368 136 b 397 236 368 136 371 171 z m 518 1004 l 379 1004 l 288 804 l 415 804 z "},"ÿ":{"ha":715,"x_min":0,"x_max":0,"o":"m 397 236 l 560 678 l 706 678 l 376 -229 b 146 -386 350 -303 279 -386 b 24 -386 57 -386 33 -386 l 24 -258 b 151 -258 40 -258 143 -258 b 244 -190 207 -258 233 -222 l 315 0 l 256 0 l 10 678 l 156 678 l 318 236 b 347 136 344 171 347 136 l 368 136 b 397 236 368 136 371 171 z m 233 851 b 310 928 274 851 310 886 b 233 1004 310 971 274 1004 b 154 928 190 1004 154 971 b 233 851 154 886 190 851 z m 489 851 b 565 928 529 851 565 886 b 489 1004 565 971 529 1004 b 410 928 447 1004 410 971 b 489 851 410 886 447 851 z "},"z":{"ha":669,"x_min":0,"x_max":0,"o":"m 424 533 l 424 554 l 71 554 l 71 678 l 601 678 l 601 551 b 313 217 601 551 339 244 b 226 144 282 185 253 150 l 226 124 l 613 124 l 613 0 l 49 0 l 49 126 b 329 465 49 126 294 428 b 424 533 365 506 397 528 z "},"ž":{"ha":669,"x_min":0,"x_max":0,"o":"m 424 533 l 424 554 l 71 554 l 71 678 l 601 678 l 601 551 b 313 217 601 551 339 244 b 226 144 282 185 253 150 l 226 124 l 613 124 l 613 0 l 49 0 l 49 126 b 329 465 49 126 294 428 b 424 533 365 506 397 528 z m 258 831 l 426 831 l 547 1004 l 417 1004 l 347 903 l 338 903 l 268 1004 l 138 1004 z "},".":{"ha":344,"x_min":0,"x_max":0,"o":"m 175 -17 b 261 69 219 -17 261 22 b 175 157 261 118 219 157 b 83 69 125 157 83 118 b 175 -17 83 22 125 -17 z "},",":{"ha":369,"x_min":0,"x_max":0,"o":"m 261 69 b 175 -17 261 22 219 -17 b 83 69 125 -17 83 22 b 175 157 83 118 125 157 b 261 69 219 157 261 118 z m 200 -12 l 175 157 b 114 -172 340 151 324 -151 l 114 -121 b 200 -12 176 -107 208 -57 z "},":":{"ha":372,"x_min":0,"x_max":0,"o":"m 189 -17 b 275 69 233 -17 275 22 b 189 157 275 118 233 157 b 97 69 139 157 97 118 b 189 -17 97 22 139 -17 z m 189 521 b 275 607 233 521 275 560 b 189 694 275 656 233 694 b 97 607 139 694 97 656 b 189 521 97 560 139 521 z "},";":{"ha":397,"x_min":0,"x_max":0,"o":"m 189 521 b 275 607 233 521 275 560 b 189 694 275 656 233 694 b 97 607 139 694 97 656 b 189 521 97 560 139 521 z m 275 69 b 189 -17 275 22 233 -17 b 97 69 139 -17 97 22 b 189 157 97 118 139 157 b 275 69 233 157 275 118 z m 214 -12 l 189 157 b 128 -172 354 151 338 -151 l 128 -121 b 214 -12 190 -107 222 -57 z "},"!":{"ha":378,"x_min":0,"x_max":0,"o":"m 115 972 l 128 250 l 253 250 l 265 972 z m 192 -17 b 278 69 236 -17 278 22 b 192 157 278 118 236 157 b 100 69 142 157 100 118 b 192 -17 100 22 142 -17 z "},"?":{"ha":753,"x_min":0,"x_max":0,"o":"m 711 731 b 379 353 711 503 375 503 b 511 374 379 353 432 374 l 526 374 l 526 250 l 256 250 b 561 715 256 610 561 543 b 376 853 561 810 482 853 b 192 715 264 853 192 810 b 193 699 192 710 192 704 l 44 699 b 42 731 43 710 42 719 b 376 989 42 878 169 989 b 711 731 583 989 711 878 z m 388 -17 b 475 69 433 -17 475 22 b 388 157 475 118 433 157 b 296 69 338 157 296 118 b 388 -17 296 22 338 -17 z "},"·":{"ha":346,"x_min":0,"x_max":0,"o":"m 175 250 b 268 342 224 250 268 290 b 175 435 268 393 224 435 b 78 342 122 435 78 393 b 175 250 78 290 122 250 z "},"•":{"ha":458,"x_min":0,"x_max":0,"o":"m 232 194 b 381 342 310 194 381 260 b 232 490 381 424 310 490 b 78 342 149 490 78 424 b 232 194 78 260 149 194 z "},"*":{"ha":521,"x_min":0,"x_max":0,"o":"m 303 972 l 219 972 l 219 815 l 63 874 l 33 796 l 199 733 l 100 572 l 171 529 l 261 675 l 351 529 l 422 572 l 325 733 l 488 796 l 458 874 l 303 815 z "},"#":{"ha":946,"x_min":0,"x_max":0,"o":"m 663 972 l 476 0 l 615 0 l 804 972 z m 331 972 l 143 0 l 283 0 l 471 972 z m 58 389 l 58 267 l 843 267 l 843 389 z m 103 703 l 103 579 l 888 579 l 888 703 z "},"/":{"ha":603,"x_min":0,"x_max":0,"o":"m 603 972 l 469 972 l 0 -251 l 133 -251 z "},"\\":{"ha":603,"x_min":0,"x_max":0,"o":"m 133 972 l 0 972 l 469 -251 l 603 -251 z "},"-":{"ha":675,"x_min":0,"x_max":0,"o":"m 89 435 l 89 311 l 586 311 l 586 435 z "},"–":{"ha":868,"x_min":0,"x_max":0,"o":"m 89 435 l 89 311 l 779 311 l 779 435 z "},"—":{"ha":1332,"x_min":0,"x_max":0,"o":"m 89 435 l 89 311 l 1243 311 l 1243 435 z "},"_":{"ha":865,"x_min":0,"x_max":0,"o":"m 89 -17 l 89 -140 l 776 -140 l 776 -17 z "},"(":{"ha":403,"x_min":0,"x_max":0,"o":"m 403 -289 l 261 -289 b 67 342 132 -110 67 125 b 261 972 67 558 132 793 l 403 972 b 217 342 274 797 217 560 b 403 -289 217 124 275 -114 z "},")":{"ha":403,"x_min":0,"x_max":0,"o":"m 0 -289 l 142 -289 b 336 342 271 -110 336 125 b 142 972 336 558 271 793 l 0 972 b 186 342 129 797 186 560 b 0 -289 186 124 128 -114 z "},"{":{"ha":475,"x_min":0,"x_max":0,"o":"m 165 353 l 165 331 b 314 172 271 331 314 246 l 314 29 b 475 -153 314 -56 360 -153 l 475 -289 b 164 50 253 -289 164 -106 l 164 181 b 61 294 164 235 135 294 l 61 389 b 164 503 135 389 164 449 l 164 632 b 475 972 164 789 253 972 l 475 836 b 314 656 360 836 314 739 l 314 513 b 165 353 314 438 271 353 z "},"}":{"ha":476,"x_min":0,"x_max":0,"o":"m 311 331 l 311 353 b 163 511 206 353 163 438 l 163 654 b 1 836 163 739 117 836 l 1 972 b 313 633 224 972 313 789 l 313 503 b 415 389 313 449 342 389 l 415 294 b 313 181 342 294 313 235 l 313 51 b 1 -289 313 -106 224 -289 l 1 -153 b 163 28 117 -153 163 -56 l 163 171 b 311 331 163 246 206 331 z "},"[":{"ha":410,"x_min":0,"x_max":0,"o":"m 236 863 l 236 -178 b 382 -165 236 -178 303 -165 l 410 -165 l 410 -289 l 86 -289 l 86 972 l 410 972 l 410 849 l 382 849 b 236 863 303 849 236 863 z "},"]":{"ha":410,"x_min":0,"x_max":0,"o":"m 174 -178 l 174 863 b 28 849 174 863 107 849 l 0 849 l 0 972 l 324 972 l 324 -289 l 0 -289 l 0 -165 l 28 -165 b 174 -178 107 -165 174 -178 z "},"„":{"ha":610,"x_min":0,"x_max":0,"o":"m 497 69 b 411 -17 497 22 456 -17 b 319 69 361 -17 319 22 b 411 157 319 118 361 157 b 497 69 456 157 497 118 z m 436 -12 l 411 157 b 350 -172 576 151 560 -151 l 350 -121 b 436 -12 413 -107 444 -57 z m 265 69 b 179 -17 265 22 224 -17 b 88 69 129 -17 88 22 b 179 157 88 118 129 157 b 265 69 224 157 265 118 z m 204 -12 l 179 157 b 118 -172 344 151 328 -151 l 118 -121 b 204 -12 181 -107 213 -57 z "},"“":{"ha":610,"x_min":0,"x_max":0,"o":"m 344 903 b 431 989 344 950 386 989 b 522 903 481 989 522 950 b 431 815 522 854 481 815 b 344 903 386 815 344 854 z m 406 985 l 431 815 b 492 1144 265 821 282 1124 l 492 1093 b 406 985 429 1079 397 1029 z m 113 903 b 199 989 113 950 154 989 b 290 903 249 989 290 950 b 199 815 290 854 249 815 b 113 903 154 815 113 854 z m 174 985 l 199 815 b 260 1144 33 821 50 1124 l 260 1093 b 174 985 197 1079 165 1029 z "},"”":{"ha":610,"x_min":0,"x_max":0,"o":"m 497 1136 b 411 1050 497 1089 456 1050 b 319 1136 361 1050 319 1089 b 411 1224 319 1185 361 1224 b 497 1136 456 1224 497 1185 z m 436 1054 l 411 1224 b 350 894 576 1218 560 915 l 350 946 b 436 1054 413 960 444 1010 z m 265 1136 b 179 1050 265 1089 224 1050 b 88 1136 129 1050 88 1089 b 179 1224 88 1185 129 1224 b 265 1136 224 1224 265 1185 z m 204 1054 l 179 1224 b 118 894 344 1218 328 915 l 118 946 b 204 1054 181 960 213 1010 z "},"‘":{"ha":378,"x_min":0,"x_max":0,"o":"m 113 903 b 199 989 113 950 154 989 b 290 903 249 989 290 950 b 199 815 290 854 249 815 b 113 903 154 815 113 854 z m 174 985 l 199 815 b 260 1144 33 821 50 1124 l 260 1093 b 174 985 197 1079 165 1029 z "},"’":{"ha":378,"x_min":0,"x_max":0,"o":"m 265 1136 b 179 1050 265 1089 224 1050 b 88 1136 129 1050 88 1089 b 179 1224 88 1185 129 1224 b 265 1136 224 1224 265 1185 z m 204 1054 l 179 1224 b 118 894 344 1218 328 915 l 118 946 b 204 1054 181 960 213 1010 z "},"«":{"ha":882,"x_min":0,"x_max":0,"o":"m 515 0 l 349 0 l 56 339 l 349 678 l 515 678 b 276 404 515 678 279 407 b 200 349 240 365 208 349 l 200 328 b 276 275 208 328 240 315 b 515 0 279 274 515 0 z m 826 0 l 663 0 l 368 339 l 663 678 l 826 678 b 589 401 826 678 590 404 b 511 349 551 363 519 349 l 511 328 b 589 275 519 328 553 315 b 826 0 590 274 826 0 z "},"»":{"ha":882,"x_min":0,"x_max":0,"o":"m 368 0 b 606 275 368 0 603 274 b 683 328 642 315 675 328 l 683 349 b 606 404 675 349 642 365 b 368 678 603 407 368 678 l 533 678 l 826 339 l 533 0 z m 56 0 b 294 275 56 0 293 274 b 371 328 331 315 363 328 l 371 349 b 294 401 363 349 331 363 b 56 678 293 404 56 678 l 221 678 l 515 339 l 221 0 z "},"‹":{"ha":569,"x_min":0,"x_max":0,"o":"m 514 0 l 350 0 l 56 339 l 350 678 l 514 678 b 278 404 514 678 281 407 b 200 349 240 365 208 349 l 200 328 b 278 275 208 328 240 315 b 514 0 281 274 514 0 z "},"›":{"ha":568,"x_min":0,"x_max":0,"o":"m 56 0 b 293 275 56 0 290 274 b 369 328 329 315 361 328 l 369 349 b 293 404 361 349 329 365 b 56 678 290 407 56 678 l 218 678 l 513 339 l 218 0 z "},"\"":{"ha":553,"x_min":0,"x_max":0,"o":"m 226 972 l 76 972 l 92 599 l 211 599 z m 476 972 l 326 972 l 342 599 l 461 599 z "},"'":{"ha":325,"x_min":0,"x_max":0,"o":"m 238 972 l 88 972 l 103 599 l 222 599 z "},"@":{"ha":1332,"x_min":0,"x_max":0,"o":"m 600 144 b 385 410 443 144 385 288 b 600 676 385 532 443 676 b 815 410 756 676 815 532 b 600 144 815 288 756 144 z m 667 989 b 64 388 335 989 64 719 b 667 -214 64 56 335 -214 b 1086 -37 872 -214 1007 -110 l 949 -37 b 667 -124 867 -92 775 -124 b 156 388 383 -124 156 106 b 667 899 156 671 383 899 b 1176 388 947 899 1176 671 b 1060 190 1176 258 1132 190 b 957 347 993 190 957 250 l 957 750 l 865 750 l 865 719 b 879 561 865 642 879 561 l 857 561 b 590 767 819 672 742 767 b 293 410 374 767 293 575 b 590 54 293 246 374 54 b 857 260 742 54 819 147 l 879 260 b 1058 100 879 151 974 100 b 1268 388 1185 100 1268 204 b 667 989 1268 719 999 989 z "},"&":{"ha":1025,"x_min":0,"x_max":0,"o":"m 531 206 b 378 107 494 156 444 107 b 210 276 300 107 210 153 b 378 451 210 400 299 451 b 514 379 436 453 483 415 l 589 292 b 531 206 589 292 560 247 z m 986 451 l 986 575 b 724 476 875 575 783 549 l 665 396 b 422 672 665 396 499 585 b 364 779 388 713 364 751 b 467 865 364 833 410 865 b 569 779 524 865 569 835 l 719 779 b 464 989 719 901 619 989 b 214 781 314 989 214 901 b 297 613 214 703 257 653 b 410 525 343 564 410 525 l 393 508 b 297 538 378 515 353 538 b 60 279 192 538 60 449 b 371 -17 60 72 210 -17 b 608 110 493 -17 561 49 l 669 199 l 840 0 l 1007 0 l 747 300 l 803 381 b 986 451 843 435 897 451 z "},"§":{"ha":706,"x_min":0,"x_max":0,"o":"m 353 401 b 194 490 281 401 194 426 b 353 579 194 556 281 579 b 511 490 425 579 511 556 b 353 401 511 426 425 401 z m 357 703 b 228 783 285 703 228 732 b 357 865 228 836 285 865 b 486 783 429 865 486 836 b 486 774 486 774 486 778 l 633 774 b 633 790 633 779 633 785 b 357 989 633 901 529 989 b 81 790 185 989 81 901 b 253 646 81 697 192 649 l 253 624 b 47 471 221 624 47 600 b 353 272 47 332 210 272 b 478 189 422 272 478 244 b 353 107 478 136 422 107 b 228 189 283 107 228 136 b 228 201 228 193 228 197 l 81 201 b 81 189 81 197 81 193 b 354 -17 81 76 185 -17 b 625 189 521 -17 625 76 b 453 336 625 299 519 335 l 453 358 b 658 515 483 358 658 386 b 357 703 658 638 529 703 z "},"©":{"ha":1128,"x_min":0,"x_max":0,"o":"m 410 488 b 568 296 410 399 453 296 b 697 374 635 296 678 333 l 815 374 b 568 197 797 317 735 197 b 300 486 376 197 300 353 b 568 775 300 619 376 775 b 817 599 735 775 797 656 l 697 599 b 568 678 679 638 638 678 b 410 488 453 678 410 575 z m 564 74 b 150 486 335 74 150 257 b 564 899 150 715 335 899 b 978 486 793 899 978 715 b 564 74 978 257 793 74 z m 564 989 b 56 486 283 989 56 764 b 564 -17 56 208 283 -17 b 1072 486 844 -17 1072 208 b 564 989 1072 764 844 989 z "},"®":{"ha":647,"x_min":0,"x_max":0,"o":"m 324 511 b 108 725 168 511 108 626 b 324 939 108 824 168 939 b 540 725 479 939 540 824 b 324 511 540 626 479 511 z m 324 989 b 56 725 129 989 56 847 b 324 461 56 603 129 461 b 592 725 518 461 592 603 b 324 989 592 847 518 989 z m 344 756 l 274 756 l 274 821 l 344 821 b 381 788 365 821 381 808 b 344 756 381 768 365 756 z m 383 728 l 383 735 b 433 799 396 739 433 757 b 350 868 433 839 406 868 l 219 868 l 219 583 l 272 583 l 272 708 l 353 708 b 378 685 367 708 378 697 b 378 583 378 656 378 583 l 426 583 b 426 683 426 583 426 653 b 383 728 426 708 410 728 z "},"℗":{"ha":646,"x_min":0,"x_max":0,"o":"m 357 758 l 283 758 l 283 826 l 357 826 b 397 792 379 826 397 815 b 357 758 397 769 379 758 z m 449 792 b 363 872 449 849 401 872 l 232 872 l 232 575 l 285 575 l 285 713 l 363 713 b 449 792 406 713 449 739 z m 322 511 b 107 725 165 511 107 628 b 322 939 107 822 165 939 b 539 725 481 939 539 822 b 322 511 539 628 481 511 z m 322 989 b 56 725 128 989 56 847 b 322 461 56 603 128 461 b 590 725 518 461 590 603 b 322 989 590 847 518 989 z "},"™":{"ha":851,"x_min":0,"x_max":0,"o":"m 322 972 l 35 972 l 35 915 l 149 915 l 149 585 l 210 585 l 210 915 l 322 915 z m 768 972 l 688 972 l 551 642 l 538 642 l 404 972 l 322 972 l 322 585 l 383 585 l 383 867 l 496 585 l 592 585 l 707 867 l 707 585 l 768 585 z "},"|":{"ha":450,"x_min":0,"x_max":0,"o":"m 163 972 l 163 -289 l 288 -289 l 288 972 z "},"$":{"ha":826,"x_min":0,"x_max":0,"o":"m 349 1110 l 474 1110 l 474 -136 l 349 -136 z m 771 282 b 404 -17 771 143 667 -17 b 38 288 142 -17 38 149 l 188 288 b 404 119 188 210 249 119 b 621 282 560 119 621 204 b 372 428 621 388 471 410 b 49 706 235 454 49 500 b 406 989 49 836 150 989 b 765 706 664 989 765 836 b 765 696 765 703 765 700 l 615 696 b 615 706 615 700 615 703 b 406 853 615 772 558 853 b 199 706 257 853 199 772 b 399 561 199 610 286 581 b 771 282 571 533 771 486 z "},"€":{"ha":1058,"x_min":0,"x_max":0,"o":"m 832 290 l 994 290 b 563 -17 963 192 854 -17 b 100 486 232 -17 100 254 b 563 989 100 718 232 989 b 994 682 854 989 963 782 l 832 682 b 563 853 799 760 717 853 b 250 488 338 853 250 656 b 561 119 250 317 338 119 b 832 290 717 119 799 213 z m 29 621 l 664 621 l 664 532 l 29 532 z m 29 440 l 665 440 l 665 351 l 29 351 z "},"£":{"ha":861,"x_min":0,"x_max":0,"o":"m 682 174 l 682 243 l 807 243 l 807 125 b 689 0 807 50 765 8 l 40 0 l 40 136 b 139 504 181 188 203 356 l 43 504 l 43 594 l 118 594 b 453 989 78 743 172 989 b 781 715 690 989 769 807 l 635 715 b 453 853 625 763 578 853 b 269 594 281 853 238 694 l 621 594 l 621 504 l 283 504 b 151 136 336 364 311 200 l 151 114 b 385 136 151 114 306 136 l 643 136 b 682 174 667 136 682 150 z "},"¥":{"ha":857,"x_min":0,"x_max":0,"o":"m 467 624 l 675 972 l 829 972 l 503 418 l 503 0 l 353 0 l 353 419 l 28 972 l 182 972 l 389 624 b 417 558 408 590 417 558 l 439 558 b 467 624 439 558 447 590 z m 161 482 l 703 482 l 703 392 l 161 392 z m 161 292 l 703 292 l 703 201 l 161 201 z "},"+":{"ha":763,"x_min":0,"x_max":0,"o":"m 443 746 l 318 746 l 318 528 l 101 528 l 101 404 l 318 404 l 318 186 l 443 186 l 443 404 l 661 404 l 661 528 l 443 528 z "},"−":{"ha":794,"x_min":0,"x_max":0,"o":"m 101 528 l 101 404 l 693 404 l 693 528 z "},"×":{"ha":718,"x_min":0,"x_max":0,"o":"m 601 618 l 513 706 l 358 551 l 204 706 l 117 618 l 271 465 l 117 310 l 206 222 l 358 376 l 513 222 l 600 310 l 446 464 z "},"÷":{"ha":763,"x_min":0,"x_max":0,"o":"m 101 481 l 101 357 l 661 357 l 661 481 z m 382 107 b 461 185 424 107 461 142 b 382 264 461 229 424 264 b 299 185 336 264 299 229 b 382 107 299 142 336 107 z m 382 574 b 461 651 424 574 461 608 b 382 731 461 696 424 731 b 299 651 336 731 299 696 b 382 574 299 608 336 574 z "},"=":{"ha":763,"x_min":0,"x_max":0,"o":"m 101 388 l 101 264 l 661 264 l 661 388 z m 101 661 l 101 538 l 661 538 l 661 661 z "},"≠":{"ha":767,"x_min":0,"x_max":0,"o":"m 104 388 l 104 264 l 664 264 l 664 388 z m 104 661 l 104 538 l 664 538 l 664 661 z m 535 767 l 121 158 l 231 158 l 644 767 z "},">":{"ha":763,"x_min":0,"x_max":0,"o":"m 101 254 l 101 121 l 661 328 l 661 511 l 101 719 l 101 586 b 461 451 101 586 446 457 b 546 426 500 436 546 426 l 546 413 b 461 389 546 413 501 404 b 101 254 440 382 101 254 z "},"<":{"ha":763,"x_min":0,"x_max":0,"o":"m 661 254 b 301 389 661 254 322 382 b 217 413 261 404 217 413 l 217 426 b 301 451 217 426 263 436 b 661 586 317 457 661 586 l 661 719 l 101 511 l 101 328 l 661 121 z "},"≥":{"ha":763,"x_min":0,"x_max":0,"o":"m 101 124 l 101 0 l 660 0 l 660 124 z m 101 349 l 101 215 l 661 422 l 661 606 l 101 813 l 101 681 b 461 546 101 681 442 551 b 546 521 500 532 546 521 l 546 506 b 461 483 546 506 501 497 b 101 349 444 478 101 349 z "},"≤":{"ha":763,"x_min":0,"x_max":0,"o":"m 661 124 l 661 0 l 101 0 l 101 124 z m 661 349 b 301 483 661 349 318 478 b 217 507 263 499 217 507 l 217 521 b 301 546 217 521 260 532 b 661 681 319 553 661 681 l 661 814 l 101 607 l 101 424 l 661 215 z "},"±":{"ha":754,"x_min":0,"x_max":0,"o":"m 97 108 l 97 0 l 657 0 l 657 108 z m 439 728 l 314 728 l 314 528 l 97 528 l 97 406 l 314 406 l 314 207 l 439 207 l 439 406 l 657 406 l 657 528 l 439 528 z "},"≈":{"ha":808,"x_min":0,"x_max":0,"o":"m 582 724 l 707 724 b 565 467 707 600 699 467 b 279 581 475 467 343 581 b 226 464 226 581 226 528 l 101 464 b 243 722 101 588 108 722 b 529 607 333 722 464 607 b 582 724 581 607 582 660 z m 582 414 l 707 414 b 565 156 707 290 699 156 b 279 269 475 156 343 269 b 226 153 226 269 226 218 l 101 153 b 243 410 101 276 108 410 b 529 296 333 410 464 296 b 582 414 581 296 582 349 z "},"~":{"ha":808,"x_min":0,"x_max":0,"o":"m 582 596 l 707 596 b 564 338 707 472 699 338 b 279 451 475 338 343 451 b 226 335 226 451 226 400 l 101 335 b 243 593 101 458 108 593 b 529 478 333 593 464 478 b 582 596 581 478 582 531 z "},"^":{"ha":751,"x_min":0,"x_max":0,"o":"m 528 674 l 663 674 l 457 1178 l 294 1178 l 89 674 l 224 674 b 343 968 224 674 342 965 b 365 1063 363 1013 365 1063 l 386 1063 b 408 968 386 1063 389 1013 b 528 674 410 965 528 674 z "},"%":{"ha":1167,"x_min":0,"x_max":0,"o":"m 296 0 l 1028 972 l 871 972 l 139 0 z m 283 636 b 167 756 199 636 167 700 b 283 874 167 810 199 874 b 399 756 367 874 399 810 b 283 636 399 700 367 636 z m 283 989 b 49 756 113 989 49 864 b 283 522 49 647 113 522 b 517 756 453 522 517 647 b 283 989 517 864 453 989 z m 883 100 b 767 217 800 100 767 163 b 883 335 767 272 800 335 b 1000 217 967 335 1000 272 b 883 100 1000 163 967 100 z m 883 450 b 650 217 714 450 650 325 b 883 -17 650 110 714 -17 b 1118 217 1054 -17 1118 110 b 883 450 1118 325 1054 450 z "},"¨":{"ha":561,"x_min":0,"x_max":0,"o":"m 154 1093 b 231 1169 194 1093 231 1128 b 154 1246 231 1213 194 1246 b 75 1169 111 1246 75 1213 b 154 1093 75 1128 111 1093 z m 410 1093 b 486 1169 450 1093 486 1128 b 410 1246 486 1213 450 1246 b 331 1169 368 1246 331 1213 b 410 1093 331 1128 368 1093 z "},"˙":{"ha":278,"x_min":0,"x_max":0,"o":"m 140 1093 b 217 1169 181 1093 217 1128 b 140 1246 217 1213 181 1246 b 61 1169 97 1246 61 1213 b 140 1093 61 1128 97 1093 z "},"`":{"ha":353,"x_min":0,"x_max":0,"o":"m 64 1246 l 167 1046 l 294 1046 l 203 1246 z "},"´":{"ha":353,"x_min":0,"x_max":0,"o":"m 289 1246 l 150 1246 l 58 1046 l 186 1046 z "},"˝":{"ha":557,"x_min":0,"x_max":0,"o":"m 493 1246 l 354 1246 l 263 1046 l 390 1046 z m 288 1246 l 149 1246 l 57 1046 l 185 1046 z "},"ˆ":{"ha":521,"x_min":0,"x_max":0,"o":"m 344 1246 l 176 1246 l 56 1072 l 186 1072 l 256 1172 l 265 1172 l 335 1072 l 465 1072 z "},"ˇ":{"ha":521,"x_min":0,"x_max":0,"o":"m 176 1072 l 344 1072 l 465 1246 l 335 1246 l 265 1144 l 256 1144 l 186 1246 l 56 1246 z "},"˘":{"ha":492,"x_min":0,"x_max":0,"o":"m 431 1246 l 326 1246 b 244 1164 326 1210 304 1164 b 165 1246 188 1164 165 1210 l 61 1246 b 244 1065 61 1163 111 1065 b 431 1246 381 1065 431 1163 z "},"˚":{"ha":465,"x_min":0,"x_max":0,"o":"m 232 1136 b 156 1217 176 1136 156 1178 b 232 1296 156 1254 176 1296 b 310 1217 289 1296 310 1254 b 232 1136 310 1178 289 1136 z m 232 1390 b 56 1217 104 1390 56 1297 b 232 1043 56 1135 104 1043 b 410 1217 361 1043 410 1135 b 232 1390 410 1297 361 1390 z "}}}
